<svg width="1600" height="1200" viewBox="0 0 1600 1200" fill="none" xmlns="http://www.w3.org/2000/svg">
  <rect width="1600" height="1200" fill="#ECEEF2"/>
  <rect x="940" y="96" width="468" height="1008" rx="24" fill="#F8F9FB"/>
  <rect x="1092" y="184" width="202" height="834" rx="14" fill="#DDE2EA"/>
  <rect x="1044" y="222" width="20" height="758" rx="10" fill="#2F4FDA"/>
  <rect x="188" y="822" width="944" height="180" rx="28" fill="#D8DEE8"/>
  <rect x="242" y="326" width="684" height="376" rx="30" fill="#F9FAFC"/>
  <rect x="288" y="372" width="592" height="286" rx="18" fill="#E8ECF2"/>
  <rect x="320" y="408" width="272" height="16" rx="8" fill="#C8D0DD"/>
  <rect x="320" y="448" width="396" height="16" rx="8" fill="#C8D0DD"/>
  <rect x="320" y="488" width="228" height="16" rx="8" fill="#C8D0DD"/>
  <rect x="676" y="438" width="160" height="160" rx="80" fill="#F4F6FA"/>
  <circle cx="1212" cy="236" r="128" fill="#F4F6FA"/>
  <g opacity="0.65" filter="url(#filter0_f_687_13)">
    <ellipse cx="1344" cy="180" rx="176" ry="120" fill="#FFFFFF"/>
  </g>
  <g opacity="0.35" filter="url(#filter1_f_687_13)">
    <ellipse cx="620" cy="178" rx="320" ry="132" fill="#FFFFFF"/>
  </g>
  <defs>
    <filter id="filter0_f_687_13" x="1040" y="-68" width="608" height="496" filterUnits="userSpaceOnUse" color-interpolation-filters="sRGB">
      <feFlood flood-opacity="0" result="BackgroundImageFix"/>
      <feBlend mode="normal" in="SourceGraphic" in2="BackgroundImageFix" result="shape"/>
      <feGaussianBlur stdDeviation="64" result="effect1_foregroundBlur_687_13"/>
    </filter>
    <filter id="filter1_f_687_13" x="172" y="-82" width="896" height="520" filterUnits="userSpaceOnUse" color-interpolation-filters="sRGB">
      <feFlood flood-opacity="0" result="BackgroundImageFix"/>
      <feBlend mode="normal" in="SourceGraphic" in2="BackgroundImageFix" result="shape"/>
      <feGaussianBlur stdDeviation="64" result="effect1_foregroundBlur_687_13"/>
    </filter>
  </defs>
</svg>
